<svg xmlns="http://www.w3.org/2000/svg" viewBox="0 0 256 256" role="img" aria-labelledby="title desc">
  <title id="title">Sri Venkateswara Swamy emblem</title>
  <desc id="desc">A stylized devotional school logo in gold, maroon, and teal.</desc>
  <defs>
    <linearGradient id="gold" x1="0" x2="1" y1="0" y2="1">
      <stop offset="0%" stop-color="#fff1b8"/>
      <stop offset="40%" stop-color="#f4c14a"/>
      <stop offset="70%" stop-color="#b87812"/>
      <stop offset="100%" stop-color="#fde7a4"/>
    </linearGradient>
    <linearGradient id="maroon" x1="0" x2="1" y1="0" y2="1">
      <stop offset="0%" stop-color="#641a24"/>
      <stop offset="100%" stop-color="#41101b"/>
    </linearGradient>
  </defs>
  <circle cx="128" cy="128" r="118" fill="url(#maroon)"/>
  <path d="M128 18c30 28 48 58 48 84 0 28-15 48-48 76-33-28-48-48-48-76 0-26 18-56 48-84z" fill="url(#gold)" stroke="#f7d87a" stroke-width="4"/>
  <path d="M128 58c14 14 22 29 22 43 0 14-8 25-22 39-14-14-22-25-22-39 0-14 8-29 22-43z" fill="#0f766e"/>
  <path d="M128 71c7 7 11 14 11 21 0 7-4 13-11 20-7-7-11-13-11-20 0-7 4-14 11-21z" fill="#f8fafc"/>
  <path d="M128 95c-18 21-30 45-30 67 0 19 10 34 30 50 20-16 30-31 30-50 0-22-12-46-30-67z" fill="#111827" opacity=".92"/>
  <path d="M128 102c5 0 9 4 9 9 0 4-4 8-9 8-5 0-9-4-9-8 0-5 4-9 9-9z" fill="#ef4444"/>
  <path d="M89 186c12 12 26 19 39 19 13 0 27-7 39-19" fill="none" stroke="url(#gold)" stroke-width="10" stroke-linecap="round"/>
  <path d="M76 76c-16 10-28 26-33 45" fill="none" stroke="url(#gold)" stroke-width="8" stroke-linecap="round"/>
  <path d="M180 76c16 10 28 26 33 45" fill="none" stroke="url(#gold)" stroke-width="8" stroke-linecap="round"/>
  <circle cx="56" cy="134" r="18" fill="url(#gold)"/>
  <circle cx="200" cy="134" r="18" fill="url(#gold)"/>
  <circle cx="56" cy="134" r="6" fill="#0f766e"/>
  <circle cx="200" cy="134" r="6" fill="#0f766e"/>
  <circle cx="128" cy="206" r="14" fill="url(#gold)"/>
  <circle cx="128" cy="206" r="5" fill="#0f766e"/>
  <path d="M40 200h176" stroke="url(#gold)" stroke-width="8" stroke-linecap="round"/>
</svg>
